<svg xmlns="http://www.w3.org/2000/svg" viewBox="0 0 256 256"><defs><style>.a{fill:#dfdbd7;}.b{fill:#595555;fill-rule:evenodd;}</style></defs><rect class="a" width="256" height="256"/><path class="b" d="M193.39,59.19h-18V79.51h-97V59.19h-18c-2.25,0-4.51,2.26-4.51,6.77V219.48A4.86,4.86,0,0,0,60.35,224h133c2.26,0,6.77-2.26,6.77-4.52V66c0-4.51-4.51-6.77-6.77-6.77Zm-24.8,99.34v11.29H85.16V158.53ZM85.16,140.47V129.18h83.43v11.29Zm83.43,47.41v13.54H85.16V187.88Zm0-76.76H85.16V97.57h83.43v13.55Z"/><path class="b" d="M168.78,75.08V56.94c0-4.53-2.26-6.8-4.52-6.8H148.43C146.17,41.07,137.13,32,128.08,32c-11.3,0-20.34,9.07-22.61,18.14H91.91q-6.78,0-6.79,6.8V75.08h83.66Zm-40.7-27.21a4.87,4.87,0,0,1,4.53,4.54c0,4.53-2.26,6.8-4.53,6.8q-6.78,0-6.78-6.8c0-2.27,2.26-4.54,6.78-4.54Z"/></svg>