<svg xmlns="http://www.w3.org/2000/svg" viewBox="0 0 256 256"><defs><style>.a{fill:#595555;}.b{fill:#dfdbd7;fill-rule:evenodd;}</style></defs><rect class="a" width="256" height="256"/><path class="b" d="M202.55,176.73C198,167.73,189,161,182.22,161H73.78C67,161,58,167.73,55.71,176.73L37.63,224H218.37l-15.82-47.27Z"/><path class="b" d="M125.53,115.78H139.1c2.27,0,4.53,2.26,6.79,2.26,6.79-2.26,15.84-9.05,24.89-15.83h0c0-27.14-20.36-49.76-43-49.76s-43,22.62-43,49.76a38.18,38.18,0,0,0,6.79,22.62c6.79,15.83,20.36,24.87,36.2,24.87s29.42-9,36.2-24.87c2.27-2.27,4.53-6.79,4.53-9a105.82,105.82,0,0,1-22.63,11.31c0,2.26-2.26,4.52-6.79,4.52H125.53q-6.8,0-6.79-6.78v-2.27q0-6.78,6.79-6.78Z"/><path class="b" d="M64.85,124.66h9c4.51,0,6.77-2.26,6.77-4.52V95.28c0-29.38,18-52,47.36-52s47.36,22.6,47.36,52v24.86c0,2.26,4.51,4.52,6.77,4.52h9c4.51,0,6.76-2.26,6.76-4.52V102.06q0-6.78-6.76-6.78h-2.26c-2.25-33.9-22.55-61-56.38-63.28H128v2.26h-4.51c-33.83,2.26-54.13,29.38-54.13,61H64.85c-2.25,0-6.76,2.26-6.76,6.78v18.08c0,2.26,4.51,4.52,6.76,4.52ZM128,36.52Z"/></svg>