<svg xmlns="http://www.w3.org/2000/svg" viewBox="0 0 256 256"><defs><style>.a{fill:#595555;}.b{fill:#dfdbd7;fill-rule:evenodd;}</style></defs><rect class="a" width="256" height="256"/><path class="b" d="M142.51,103.63c17.91-2.24,31.35,2.24,42.55,13.44V83.46H32.76V184.3h82.87c-11.2-9-15.68-24.65-13.44-40.33,2.24-22.41,20.16-38.1,40.32-40.34Z"/><polygon class="b" points="104.97 32 55.26 32 32.76 74.33 100.26 74.33 104.97 32 104.97 32 104.97 32"/><polygon class="b" points="185.06 74.33 160.58 32 111.61 32 117.86 74.33 185.06 74.33 185.06 74.33 185.06 74.33"/><path class="b" d="M223.24,211.13,189.75,179.8l-4.46-6.71-2.24-2.24,2.24-2.23a42.3,42.3,0,0,0,4.46-17.91c0-6.71-2.23-13.42-4.46-20.14a42.29,42.29,0,0,0-35.73-20.14c-20.09,0-37.95,17.91-37.95,40.28,0,13.43,6.7,26.86,20.09,33.57,4.47,4.48,11.17,4.48,17.86,4.48s13.4,0,20.1-4.48h2.23l6.7,6.71,33.49,31.33c0,2.24,2.23,2.24,4.46,0l6.7-4.47v-6.72Zm-73.68-35.8a24.62,24.62,0,1,1,24.56-24.62,24.81,24.81,0,0,1-24.56,24.62Z"/></svg>